<svg xmlns="http://www.w3.org/2000/svg" width="30" height="30" viewBox="0 0 30 30" fill="none">
<path d="M18.8032 1.42813C17.2756 1.42813 15.8105 2.03499 14.7303 3.1152C13.6501 4.19541 13.0432 5.66049 13.0432 7.18814V23.8181C13.0721 24.4356 12.9755 25.0525 12.7591 25.6315C12.5427 26.2106 12.2111 26.7397 11.7844 27.1869C11.3576 27.6341 10.8446 27.99 10.2763 28.2332C9.70802 28.4765 9.09634 28.6018 8.47821 28.6018C7.86007 28.6018 7.24839 28.4765 6.68011 28.2332C6.11183 27.99 5.5988 27.6341 5.17205 27.1869C4.74531 26.7397 4.41369 26.2106 4.19732 25.6315C3.98095 25.0525 3.8843 24.4356 3.9132 23.8181L4.00323 16.1581C4.01379 14.6348 4.62633 13.1774 5.70727 12.104C6.78821 11.0305 8.24979 10.4281 9.77319 10.4281H21.0432C21.6778 10.5015 22.3207 10.4399 22.9298 10.2472C23.5389 10.0546 24.1003 9.7353 24.5773 9.31033C25.0542 8.88537 25.4359 8.36434 25.6973 7.78143C25.9586 7.19853 26.0937 6.56694 26.0937 5.92813C26.0937 5.28932 25.9586 4.65773 25.6973 4.07483C25.4359 3.49192 25.0542 2.97089 24.5773 2.54593C24.1003 2.12096 23.5389 1.80168 22.9298 1.60904C22.3207 1.41639 21.6778 1.35473 21.0432 1.42813H18.8032Z" fill="#EB4C37"/>
</svg>