<svg width="800" height="800" viewBox="0 0 800 800" fill="none" xmlns="http://www.w3.org/2000/svg">
<path d="M401.256 790.962C378.863 790.962 359.829 781.444 344.154 762.41C328.479 742.256 320.641 718.184 320.641 690.192C320.641 673.397 322.88 654.923 327.359 634.769C332.957 614.615 339.115 594.462 345.833 574.308C352.551 554.154 359.269 532.321 365.987 508.808C372.705 485.295 376.624 462.902 377.744 441.628V439.949C359.829 453.385 333.517 479.137 298.808 517.205C245.064 573.188 210.355 605.658 194.679 614.615C175.645 625.812 156.051 631.41 135.897 631.41C122.462 631.41 109.585 628.051 97.2692 621.333C86.0727 614.615 77.1154 605.658 70.3974 594.462C64.7991 585.504 62 573.748 62 559.192C62 543.517 66.4786 528.402 75.4359 513.846C85.5128 498.171 98.9487 485.295 115.744 475.218C140.376 461.782 184.603 447.227 248.423 431.551C305.526 414.756 339.115 404.12 349.192 399.641C329.038 389.564 304.966 381.167 276.974 374.449C250.103 366.611 232.748 361.573 224.91 359.333C203.637 354.855 182.923 349.816 162.769 344.218C143.735 338.62 128.06 331.902 115.744 324.064C98.9487 313.987 85.5128 301.671 75.4359 287.115C66.4786 272.56 62 256.885 62 240.09C62 225.534 64.7991 213.218 70.3974 203.141C77.1154 191.944 86.0727 182.987 97.2692 176.269C109.585 169.551 122.462 166.192 135.897 166.192C154.932 166.192 175.085 172.35 196.359 184.667C219.872 199.222 248.423 226.094 282.013 265.282C316.722 306.709 348.633 338.06 377.744 359.333C377.744 343.658 368.786 304.47 350.872 241.769C348.633 232.812 343.034 212.658 334.077 181.308C326.239 148.838 322.321 125.325 322.321 110.769C322.321 82.7778 329.598 59.265 344.154 40.2308C359.829 20.077 378.863 10 401.256 10C423.65 10 442.124 20.077 456.68 40.2308C472.355 59.265 480.192 82.7778 480.192 110.769C480.192 129.803 470.115 175.15 449.962 246.808C435.406 299.432 427.009 335.821 424.769 355.974C449.402 340.299 482.432 308.949 523.859 261.923C527.218 257.444 537.855 245.688 555.769 226.654C574.803 207.62 591.598 193.624 606.154 184.667C625.188 173.47 644.222 167.872 663.256 167.872C677.812 167.872 690.688 171.231 701.885 177.949C714.201 184.667 723.718 193.624 730.436 204.821C736.034 214.897 738.833 226.654 738.833 240.09C738.833 256.885 733.795 273.12 723.718 288.795C714.761 303.35 701.885 315.667 685.09 325.744C670.534 333.581 653.18 340.859 633.026 347.577C612.872 353.175 592.718 358.214 572.564 362.692C552.41 367.171 530.577 372.209 507.064 377.808C484.671 383.406 463.957 390.684 444.923 399.641L446.603 401.321C460.038 408.039 494.748 418.675 550.731 433.231C622.389 451.145 667.175 465.141 685.09 475.218C701.885 485.295 714.761 498.171 723.718 513.846C733.795 528.402 738.833 544.077 738.833 560.872C738.833 583.265 731.556 600.62 717 612.936C703.564 625.252 686.209 631.41 664.936 631.41C643.662 631.41 624.068 625.812 606.154 614.615C589.359 604.538 554.65 572.068 502.026 517.205C462.838 478.017 437.085 453.385 424.769 443.308C427.009 475.778 437.085 520.564 455 577.667C471.795 630.291 480.192 667.799 480.192 690.192C480.192 718.184 472.355 742.256 456.68 762.41C442.124 781.444 423.65 790.962 401.256 790.962Z" fill="#EB4C37"/>
</svg>
