<svg width="800" height="800" viewBox="0 0 800 800" fill="none" xmlns="http://www.w3.org/2000/svg">
<path d="M372.15 10C441.45 10 500.25 40.4423 548.55 101.327C596.85 160.112 621 232.543 621 318.621C621 423.594 586.35 517.02 517.05 598.899C458.25 674.48 367.95 735.364 246.15 781.552C231.45 787.851 218.85 791 208.35 791C189.45 791 180 783.652 180 768.956C180 745.862 194.7 728.016 224.1 715.419C306 679.729 367.95 634.59 409.95 580.004C464.55 508.622 491.85 436.191 491.85 362.71C491.85 350.113 488.7 338.566 482.4 328.069C478.2 315.472 471.9 309.173 463.5 309.173C421.5 336.466 380.55 350.113 340.65 350.113C290.25 350.113 250.35 335.417 220.95 306.024C193.65 276.632 180 237.792 180 189.504C180 139.117 198.9 97.1278 236.7 63.5364C274.5 27.8456 319.65 10 372.15 10Z" fill="#EB4C37"/>
</svg>
