<svg width="677" height="781" viewBox="0 0 677 781" fill="none" xmlns="http://www.w3.org/2000/svg">
<path d="M339.256 780.962C316.863 780.962 297.829 771.444 282.154 752.41C266.479 732.256 258.641 708.184 258.641 680.192C258.641 663.397 260.88 644.923 265.359 624.769C270.957 604.615 277.115 584.462 283.833 564.308C290.551 544.154 297.269 522.321 303.987 498.808C310.705 475.295 314.624 452.902 315.744 431.628V429.949C297.829 443.385 271.517 469.137 236.808 507.205C183.064 563.188 148.355 595.658 132.679 604.615C113.645 615.812 94.0513 621.41 73.8974 621.41C60.4615 621.41 47.5855 618.051 35.2692 611.333C24.0727 604.615 15.1154 595.658 8.39744 584.462C2.79915 575.504 0 563.748 0 549.192C0 533.517 4.47863 518.402 13.4359 503.846C23.5128 488.171 36.9487 475.295 53.7436 465.218C78.3761 451.782 122.603 437.227 186.423 421.551C243.526 404.756 277.115 394.12 287.192 389.641C267.038 379.564 242.966 371.167 214.974 364.449C188.103 356.611 170.748 351.573 162.91 349.333C141.637 344.855 120.923 339.816 100.769 334.218C81.735 328.62 66.0598 321.902 53.7436 314.064C36.9487 303.987 23.5128 291.671 13.4359 277.115C4.47863 262.56 0 246.885 0 230.09C0 215.534 2.79915 203.218 8.39744 193.141C15.1154 181.944 24.0727 172.987 35.2692 166.269C47.5855 159.551 60.4615 156.192 73.8974 156.192C92.9316 156.192 113.085 162.35 134.359 174.667C157.872 189.222 186.423 216.094 220.013 255.282C254.722 296.709 286.633 328.06 315.744 349.333C315.744 333.658 306.786 294.47 288.872 231.769C286.633 222.812 281.034 202.658 272.077 171.308C264.239 138.838 260.321 115.325 260.321 100.769C260.321 72.7778 267.598 49.265 282.154 30.2308C297.829 10.077 316.863 0 339.256 0C361.65 0 380.124 10.077 394.68 30.2308C410.355 49.265 418.192 72.7778 418.192 100.769C418.192 119.803 408.115 165.15 387.962 236.808C373.406 289.432 365.009 325.821 362.769 345.974C387.402 330.299 420.432 298.949 461.859 251.923C465.218 247.444 475.855 235.688 493.769 216.654C512.803 197.62 529.598 183.624 544.154 174.667C563.188 163.47 582.222 157.872 601.256 157.872C615.812 157.872 628.688 161.231 639.885 167.949C652.201 174.667 661.718 183.624 668.436 194.821C674.034 204.897 676.833 216.654 676.833 230.09C676.833 246.885 671.795 263.12 661.718 278.795C652.761 293.35 639.885 305.667 623.09 315.744C608.534 323.581 591.18 330.859 571.026 337.577C550.872 343.175 530.718 348.214 510.564 352.692C490.41 357.171 468.577 362.209 445.064 367.808C422.671 373.406 401.957 380.684 382.923 389.641L384.603 391.321C398.038 398.039 432.748 408.675 488.731 423.231C560.389 441.145 605.175 455.141 623.09 465.218C639.885 475.295 652.761 488.171 661.718 503.846C671.795 518.402 676.833 534.077 676.833 550.872C676.833 573.265 669.556 590.62 655 602.936C641.564 615.252 624.209 621.41 602.936 621.41C581.662 621.41 562.068 615.812 544.154 604.615C527.359 594.538 492.65 562.068 440.026 507.205C400.838 468.017 375.085 443.385 362.769 433.308C365.009 465.778 375.085 510.564 393 567.667C409.795 620.291 418.192 657.799 418.192 680.192C418.192 708.184 410.355 732.256 394.68 752.41C380.124 771.444 361.65 780.962 339.256 780.962Z" fill="#EB4C37"/>
</svg>
