<svg width="800" height="800" viewBox="0 0 800 800" fill="none" xmlns="http://www.w3.org/2000/svg">
<path d="M499.773 445.263C499.773 427.978 494.011 408.598 482.488 387.123C471.489 367.219 447.657 341.554 410.992 310.127L368.566 272.415C364.899 268.748 361.233 266.915 357.566 266.915C354.947 266.915 351.805 268.225 348.138 270.844C317.235 295.461 301.783 324.531 301.783 358.053C301.783 376.909 306.497 395.242 315.925 413.05C329.02 436.621 354.947 464.381 393.707 496.332C407.849 508.379 420.682 519.64 432.205 530.116C435.872 532.735 439.276 534.044 442.419 534.044C447.133 534.044 451.323 532.473 454.99 529.33C484.845 504.712 499.773 476.69 499.773 445.263ZM257 394.98C257 367.743 264.071 341.292 278.213 315.627C291.308 292.58 309.64 272.677 333.21 255.916C337.401 251.725 339.496 248.059 339.496 244.916C339.496 242.297 338.186 239.155 335.567 235.488C322.473 218.203 312.521 201.704 305.712 185.991C298.903 169.754 295.498 152.469 295.498 134.136C295.498 113.709 300.212 94.067 309.64 75.2109C319.068 55.8309 332.425 40.1175 349.709 28.0705C366.994 16.0235 387.16 10 410.206 10C430.634 10 448.704 14.7141 464.418 24.1421C480.131 33.5702 492.178 45.8791 500.559 61.0688C508.939 75.7347 513.129 91.1863 513.129 107.423C513.129 117.375 510.249 126.803 504.487 135.708C498.725 144.088 490.345 148.278 479.345 148.278C469.917 148.278 462.061 144.612 455.775 137.279C450.014 129.946 447.133 121.827 447.133 112.923C447.133 109.78 447.395 106.376 447.919 102.709C448.442 99.043 448.966 95.3765 449.49 91.71C451.061 83.8533 451.847 77.0441 451.847 71.2825C451.847 60.2831 448.18 50.855 440.848 42.9983C433.515 35.1416 423.301 31.2132 410.206 31.2132C390.303 31.2132 374.065 39.0699 361.495 54.7834C349.448 70.4968 343.424 87.5198 343.424 105.852C343.424 127.327 349.186 146.183 360.709 162.421C372.232 178.134 389.779 195.681 413.349 215.061C465.727 257.487 502.392 295.461 523.343 328.983C536.962 353.601 543.771 379.005 543.771 405.194C543.771 431.906 536.7 458.357 522.558 484.547C511.034 507.069 493.226 527.497 469.132 545.829C464.418 548.972 462.061 552.638 462.061 556.829C462.061 559.447 463.37 562.59 465.989 566.257C480.131 583.541 489.821 598.731 495.059 611.826C501.868 629.634 505.273 647.181 505.273 664.466C505.273 699.559 494.273 729.677 472.274 754.818C450.276 778.912 423.039 790.959 390.564 790.959C360.709 790.959 336.353 780.745 317.497 760.318C298.117 740.938 288.427 717.892 288.427 691.179C288.427 680.179 291.57 671.013 297.855 663.68C305.188 655.823 313.045 651.895 321.425 651.895C330.853 651.895 338.71 655.3 344.995 662.109C350.233 669.965 352.852 679.655 352.852 691.179C352.852 700.083 351.805 708.725 349.709 717.106C347.614 729.677 346.567 736.748 346.567 738.319C346.567 746.7 349.709 753.509 355.995 758.747C366.994 767.127 379.303 771.317 392.921 771.317C409.682 771.317 424.872 763.984 438.49 749.318C453.156 733.605 460.489 717.368 460.489 700.607C460.489 683.846 456.299 667.87 447.919 652.681C435.348 631.729 412.563 607.112 379.565 578.827C330.329 539.02 296.284 503.141 277.428 471.19C263.809 447.096 257 421.693 257 394.98Z" fill="#EB4C37"/>
</svg>
