<svg width="287" height="781" viewBox="0 0 287 781" fill="none" xmlns="http://www.w3.org/2000/svg">
<path d="M242.773 435.263C242.773 417.978 237.011 398.598 225.488 377.123C214.489 357.219 190.657 331.554 153.992 300.127L111.566 262.415C107.899 258.748 104.233 256.915 100.566 256.915C97.9472 256.915 94.8045 258.225 91.1381 260.844C60.2349 285.461 44.7834 314.531 44.7834 348.053C44.7834 366.909 49.4974 385.242 58.9255 403.05C72.02 426.621 97.9472 454.381 136.707 486.332C150.849 498.379 163.682 509.64 175.205 520.116C178.872 522.735 182.276 524.044 185.419 524.044C190.133 524.044 194.323 522.473 197.99 519.33C227.845 494.712 242.773 466.69 242.773 435.263ZM0 384.98C0 357.743 7.07106 331.292 21.2132 305.627C34.3077 282.58 52.6401 262.677 76.2103 245.916C80.4005 241.725 82.4957 238.059 82.4957 234.916C82.4957 232.297 81.1862 229.155 78.5673 225.488C65.4728 208.203 55.5209 191.704 48.7117 175.991C41.9026 159.754 38.498 142.469 38.498 124.136C38.498 103.709 43.212 84.067 52.6401 65.2109C62.0682 45.8309 75.4246 30.1175 92.7094 18.0705C109.994 6.0235 130.16 0 153.206 0C173.634 0 191.704 4.71405 207.418 14.1421C223.131 23.5702 235.178 35.8791 243.559 51.0688C251.939 65.7347 256.129 81.1863 256.129 97.4235C256.129 107.375 253.249 116.803 247.487 125.708C241.725 134.088 233.345 138.278 222.345 138.278C212.917 138.278 205.061 134.612 198.775 127.279C193.014 119.946 190.133 111.827 190.133 102.923C190.133 99.7805 190.395 96.3759 190.919 92.7095C191.442 89.043 191.966 85.3765 192.49 81.71C194.061 73.8533 194.847 67.0441 194.847 61.2825C194.847 50.2831 191.18 40.855 183.848 32.9983C176.515 25.1416 166.301 21.2132 153.206 21.2132C133.303 21.2132 117.065 29.0699 104.495 44.7834C92.4475 60.4968 86.424 77.5198 86.424 95.8522C86.424 117.327 92.1856 136.183 103.709 152.421C115.232 168.134 132.779 185.681 156.349 205.061C208.727 247.487 245.392 285.461 266.343 318.983C279.962 343.601 286.771 369.005 286.771 395.194C286.771 421.906 279.7 448.357 265.558 474.547C254.034 497.069 236.226 517.497 212.132 535.829C207.418 538.972 205.061 542.638 205.061 546.829C205.061 549.447 206.37 552.59 208.989 556.257C223.131 573.541 232.821 588.731 238.059 601.826C244.868 619.634 248.273 637.181 248.273 654.466C248.273 689.559 237.273 719.677 215.274 744.818C193.276 768.912 166.039 780.959 133.564 780.959C103.709 780.959 79.353 770.745 60.4968 750.318C41.1169 730.938 31.4269 707.892 31.4269 681.179C31.4269 670.179 34.5696 661.013 40.855 653.68C48.1879 645.823 56.0447 641.895 64.4252 641.895C73.8533 641.895 81.71 645.3 87.9954 652.109C93.2332 659.965 95.8521 669.655 95.8521 681.179C95.8521 690.083 94.8045 698.725 92.7094 707.106C90.6143 719.677 89.5667 726.748 89.5667 728.319C89.5667 736.7 92.7094 743.509 98.9948 748.747C109.994 757.127 122.303 761.317 135.921 761.317C152.682 761.317 167.872 753.984 181.49 739.318C196.156 723.605 203.489 707.368 203.489 690.607C203.489 673.846 199.299 657.87 190.919 642.681C178.348 621.729 155.563 597.112 122.565 568.827C73.3295 529.02 39.2837 493.141 20.4275 461.19C6.80917 437.096 0 411.693 0 384.98Z" fill="#EB4C37"/>
</svg>
