<svg width="441" height="781" viewBox="0 0 441 781" fill="none" xmlns="http://www.w3.org/2000/svg">
<path d="M192.15 0C261.45 0 320.25 30.4423 368.55 91.3267C416.85 150.112 441 222.543 441 308.621C441 413.594 406.35 507.02 337.05 588.899C278.25 664.48 187.95 725.364 66.15 771.552C51.45 777.851 38.85 781 28.35 781C9.45 781 0 773.652 0 758.956C0 735.862 14.7 718.016 44.1 705.419C126 669.729 187.95 624.59 229.95 570.004C284.55 498.622 311.85 426.191 311.85 352.71C311.85 340.113 308.7 328.566 302.4 318.069C298.2 305.472 291.9 299.173 283.5 299.173C241.5 326.466 200.55 340.113 160.65 340.113C110.25 340.113 70.35 325.417 40.95 296.024C13.65 266.632 0 227.792 0 179.504C0 129.117 18.9 87.1278 56.7 53.5364C94.5 17.8456 139.65 0 192.15 0Z" fill="#EB4C37"/>
</svg>
