<svg width="800" height="800" viewBox="0 0 800 800" fill="none" xmlns="http://www.w3.org/2000/svg">
<path d="M217.561 791C177.695 791 143.234 783.909 114.179 769.728C85.1238 755.546 63.1635 736.3 48.2981 711.988C33.4327 687.677 26 661.002 26 631.964C26 578.614 42.8925 530.667 76.6775 488.122C110.463 444.902 159.451 403.37 223.642 363.527C231.075 359.475 234.791 354.072 234.791 347.319C234.791 345.293 234.116 342.254 232.764 338.202C220.602 309.164 211.48 283.502 205.398 261.217C199.317 238.931 196.276 216.308 196.276 193.348C196.276 159.582 203.371 128.855 217.561 101.167C231.751 72.8041 252.022 50.5188 278.374 34.3113C304.726 18.1038 335.809 10 371.621 10C418.244 10 454.394 23.5062 480.07 50.5188C506.423 76.856 519.599 109.946 519.599 149.79C519.599 188.283 506.761 221.373 481.084 249.061C455.407 276.073 417.23 304.099 366.553 333.137C359.796 337.189 356.417 342.254 356.417 348.332C356.417 352.384 357.093 355.76 358.444 358.462C394.257 427.344 432.096 491.836 471.962 551.939C476.016 557.342 480.07 560.043 484.125 560.043C488.855 560.043 493.247 557.342 497.301 551.939C545.951 483.057 570.276 424.305 570.276 375.682C570.276 363.527 567.574 352.046 562.168 341.241C557.438 330.436 549.668 322.332 538.856 316.93C528.721 312.878 523.653 307.476 523.653 300.722C523.653 297.346 525.342 294.645 528.721 292.619C532.099 289.917 536.491 288.567 541.897 288.567H725.35C730.755 288.567 735.147 289.917 738.526 292.619C741.904 294.645 743.593 297.346 743.593 300.722C743.593 308.151 737.85 312.878 726.363 314.904C703.389 318.956 687.173 325.371 677.713 334.15C661.496 346.981 639.536 382.773 611.832 441.525C584.804 494.2 554.06 545.186 519.599 594.484C516.896 597.86 515.545 601.912 515.545 606.639C515.545 612.042 517.234 616.431 520.612 619.808C540.883 640.743 564.195 659.652 590.547 676.534C617.575 692.742 642.914 700.846 666.564 700.846C686.159 700.846 702.038 695.781 714.201 685.651C727.039 674.846 736.836 661.678 743.593 646.145C746.972 636.691 752.715 631.964 760.824 631.964C769.608 631.964 774 636.353 774 645.132C774 648.509 773.662 651.21 772.986 653.236C760.824 694.43 741.566 727.858 715.214 753.52C689.538 778.507 656.428 791 615.886 791C555.073 791 499.328 762.975 448.65 706.924C444.596 702.196 440.204 699.833 435.474 699.833C431.42 699.833 427.704 701.521 424.325 704.898C393.243 733.261 361.147 754.871 328.038 769.728C295.604 783.909 258.779 791 217.561 791ZM137.491 579.289C137.491 616.432 148.64 649.184 170.938 677.547C193.236 705.235 225.332 719.079 267.225 719.079C311.145 719.079 353.377 701.859 393.919 667.418C398.649 663.366 401.014 658.639 401.014 653.236C401.014 649.184 399.662 645.47 396.959 642.093C362.499 589.419 337.498 550.251 321.957 524.589C307.091 498.252 288.509 461.785 266.211 415.188C262.833 407.76 258.103 404.045 252.022 404.045C247.967 404.045 243.238 406.071 237.832 410.123C205.398 433.084 180.397 458.746 162.829 487.109C145.937 515.472 137.491 546.199 137.491 579.289ZM290.537 156.881C290.537 174.439 293.239 192.672 298.645 211.581C304.726 230.49 313.51 254.463 324.997 283.502C328.376 290.93 333.106 294.645 339.187 294.645C341.89 294.645 345.268 293.632 349.323 291.606C384.459 271.346 410.473 249.736 427.366 226.776C444.934 203.815 453.718 176.802 453.718 145.738C453.718 119.401 447.299 97.7907 434.461 80.9079C422.298 63.3497 403.716 54.5706 378.715 54.5706C350.336 54.5706 328.376 64.7004 312.835 84.9598C297.969 105.219 290.537 129.193 290.537 156.881Z" fill="#EB4C37"/>
</svg>
