<svg width="748" height="781" viewBox="0 0 748 781" fill="none" xmlns="http://www.w3.org/2000/svg">
<path d="M191.561 781C151.695 781 117.234 773.909 88.1789 759.728C59.1238 745.546 37.1635 726.3 22.2981 701.988C7.4327 677.677 0 651.002 0 621.964C0 568.614 16.8925 520.667 50.6775 478.122C84.4625 434.902 133.451 393.37 197.642 353.527C205.075 349.475 208.791 344.072 208.791 337.319C208.791 335.293 208.116 332.254 206.764 328.202C194.602 299.164 185.48 273.502 179.398 251.217C173.317 228.931 170.276 206.308 170.276 183.348C170.276 149.582 177.371 118.855 191.561 91.1673C205.751 62.8041 226.022 40.5188 252.374 24.3113C278.726 8.10377 309.809 0 345.621 0C392.244 0 428.394 13.5062 454.07 40.5188C480.423 66.856 493.599 99.9464 493.599 139.79C493.599 178.283 480.761 211.373 455.084 239.061C429.407 266.073 391.23 294.099 340.553 323.137C333.796 327.189 330.417 332.254 330.417 338.332C330.417 342.384 331.093 345.76 332.444 348.462C368.257 417.344 406.096 481.836 445.962 541.939C450.016 547.342 454.07 550.043 458.125 550.043C462.855 550.043 467.247 547.342 471.301 541.939C519.951 473.057 544.276 414.305 544.276 365.682C544.276 353.527 541.574 342.046 536.168 331.241C531.438 320.436 523.668 312.332 512.856 306.93C502.721 302.878 497.653 297.476 497.653 290.722C497.653 287.346 499.342 284.645 502.721 282.619C506.099 279.917 510.491 278.567 515.897 278.567H699.35C704.755 278.567 709.147 279.917 712.526 282.619C715.904 284.645 717.593 287.346 717.593 290.722C717.593 298.151 711.85 302.878 700.363 304.904C677.389 308.956 661.173 315.371 651.713 324.15C635.496 336.981 613.536 372.773 585.832 431.525C558.804 484.2 528.06 535.186 493.599 584.484C490.896 587.86 489.545 591.912 489.545 596.639C489.545 602.042 491.234 606.431 494.612 609.808C514.883 630.743 538.195 649.652 564.547 666.534C591.575 682.742 616.914 690.846 640.564 690.846C660.159 690.846 676.038 685.781 688.201 675.651C701.039 664.846 710.836 651.678 717.593 636.145C720.972 626.691 726.715 621.964 734.824 621.964C743.608 621.964 748 626.353 748 635.132C748 638.509 747.662 641.21 746.986 643.236C734.824 684.43 715.566 717.858 689.214 743.52C663.538 768.507 630.428 781 589.886 781C529.073 781 473.328 752.975 422.65 696.924C418.596 692.196 414.204 689.833 409.474 689.833C405.42 689.833 401.704 691.521 398.325 694.898C367.243 723.261 335.147 744.871 302.038 759.728C269.604 773.909 232.779 781 191.561 781ZM111.491 569.289C111.491 606.432 122.64 639.184 144.938 667.547C167.236 695.235 199.332 709.079 241.225 709.079C285.145 709.079 327.377 691.859 367.919 657.418C372.649 653.366 375.014 648.639 375.014 643.236C375.014 639.184 373.662 635.47 370.959 632.093C336.499 579.419 311.498 540.251 295.957 514.589C281.091 488.252 262.509 451.785 240.211 405.188C236.833 397.76 232.103 394.045 226.022 394.045C221.967 394.045 217.238 396.071 211.832 400.123C179.398 423.084 154.397 448.746 136.829 477.109C119.937 505.472 111.491 536.199 111.491 569.289ZM264.537 146.881C264.537 164.439 267.239 182.672 272.645 201.581C278.726 220.49 287.51 244.463 298.997 273.502C302.376 280.93 307.106 284.645 313.187 284.645C315.89 284.645 319.268 283.632 323.323 281.606C358.459 261.346 384.473 239.736 401.366 216.776C418.934 193.815 427.718 166.802 427.718 135.738C427.718 109.401 421.299 87.7907 408.461 70.9079C396.298 53.3497 377.716 44.5706 352.715 44.5706C324.336 44.5706 302.376 54.7004 286.835 74.9598C271.969 95.2192 264.537 119.193 264.537 146.881Z" fill="#EB4C37"/>
</svg>
