<svg width="1302" height="262" viewBox="0 0 1302 262" fill="none" xmlns="http://www.w3.org/2000/svg">
<path fill-rule="evenodd" clip-rule="evenodd" d="M131 262C197.841 262 252.99 211.94 261 147.266C269.01 211.94 324.159 262 391 262C457.841 262 512.99 211.94 521 147.266C529.01 211.94 584.159 262 651 262C717.841 262 772.99 211.94 781 147.266C789.01 211.94 844.159 262 911 262C977.841 262 1032.99 211.94 1041 147.266C1049.01 211.94 1104.16 262 1171 262C1243.35 262 1302 203.349 1302 131C1302 58.6507 1243.35 0 1171 0C1104.16 0 1049.01 50.0602 1041 114.734C1032.99 50.0602 977.841 0 911 0C844.159 0 789.01 50.0602 781 114.734C772.99 50.0602 717.841 0 651 0C584.159 0 529.01 50.0602 521 114.734C512.99 50.0602 457.841 0 391 0C324.159 0 269.01 50.0602 261 114.734C252.99 50.0602 197.841 0 131 0C58.6507 0 0 58.6507 0 131C0 203.349 58.6507 262 131 262Z" fill="url(#paint0_radial_144_28)"/>
<defs>
<radialGradient id="paint0_radial_144_28" cx="0" cy="0" r="1" gradientUnits="userSpaceOnUse" gradientTransform="translate(410 350) rotate(-48.7842) scale(632.117 3141.29)">
<stop offset="0.416667" stop-color="#EB4C37"/>
<stop offset="1" stop-color="white"/>
</radialGradient>
</defs>
</svg>
